<svg id="Layer_1" data-name="Layer 1" xmlns="http://www.w3.org/2000/svg" viewBox="0 0 1366 127.8"><defs><style>.cls-1,.cls-2{fill:#fff;stroke:#fff;stroke-miterlimit:10;}.cls-2{font-size:116.61px;font-family:CurwenSans, Curwen Sans;}.cls-3{letter-spacing:-0.02em;}.cls-4{letter-spacing:-0.01em;}</style></defs><title>Artboard 1</title><g id="_Group_" data-name="&lt;Group&gt;"><g id="Fire_T" data-name="Fire T"><path id="_Path_" data-name="&lt;Path&gt;" class="cls-1" d="M108.91,10.39c-5.19,12-10.1,5.69-13.24,6.26-5.55,1-7.29,9.31-14.69,9.88-3,.24-8.59-4.77-3.2-9.71-10.73-.88-16.65,17-24.64,9.14-1-1-3.08-5.17,5.8-9.14-10.72.18-12.42,6.71-14,7.14C23.55,29.62,7.83,48.59,7.83,71.12,7.83,98.05,30.28,119.89,58,120V59.46H28.67V43.23H99.6c3.59-1.9,6.61-6.18,4.6-12.72-6.46,7.35-13.75,4.41-6.87-2.42,2.31-2.3,5.8-2.59,9-5.1C109.06,20.83,111.84,13.55,108.91,10.39Z"/><path id="_Path_2" data-name="&lt;Path&gt;" class="cls-1" d="M107.16,59.46H78v56.66c18-7.46,30.65-24.79,30.65-45A47.27,47.27,0,0,0,107.16,59.46Z"/></g><text class="cls-2" transform="translate(181.03 116.13) scale(1.03 1)">TECHIFIER <tspan class="cls-3" x="537.54" y="0">A</tspan><tspan class="cls-4" x="612.99" y="0">CC</tspan><tspan x="755.25" y="0">OUNTS</tspan></text></g></svg>