<svg id="Capa_1" data-name="Capa 1" xmlns="http://www.w3.org/2000/svg" viewBox="0 0 512 460"><defs><style>.cls-1{fill:#fff;}</style></defs><title>inventory</title><path class="cls-1" d="M256,266a10,10,0,1,0,10,10A10,10,0,0,0,256,266Z" transform="translate(0 -26)"/><path class="cls-1" d="M0,436a10,10,0,0,0,10,10H40v30a10,10,0,0,0,10,10h80a10,10,0,0,0,10-10V446H372v30a10,10,0,0,0,10,10h80a10,10,0,0,0,10-10V446h30a10,10,0,0,0,10-10V76a50.06,50.06,0,0,0-50-50H50c-.84,0-1.68,0-2.57.06A50,50,0,0,0,0,76Zm120,30H60V446h60Zm332,0H392V446h60ZM50,426H20V166H206v30a50,50,0,0,0,1,10H70a30,30,0,0,0-30,30V376a30,30,0,0,0,30,30H442a30,30,0,0,0,30-30V236a30,30,0,0,0-30-30H305a50,50,0,0,0,1-10V166H492V426ZM60,46H452V96a10,10,0,0,1-10,10H70A10,10,0,0,1,60,96Zm0,301H452v29a10,10,0,0,1-10,10H70a10,10,0,0,1-10-10Zm392-80H296a10,10,0,0,0,0,20H452v40H60V287H216a10,10,0,0,0,0-20H60V236a10,10,0,0,1,10-10H216a50,50,0,0,0,80,0H442a10,10,0,0,1,10,10ZM286,126v70a30,30,0,0,1-60,0V126ZM492,76v70H306V126H442a30,30,0,0,0,30-30V47.72A30,30,0,0,1,492,76ZM40,47.69V96a30,30,0,0,0,30,30H206v20H20V76A30,30,0,0,1,40,47.69Z" transform="translate(0 -26)"/><path class="cls-1" d="M256,206a10,10,0,0,0,10-10V176a10,10,0,0,0-20,0v20A10,10,0,0,0,256,206Z" transform="translate(0 -26)"/></svg>