<svg id="Layer_1" data-name="Layer 1" xmlns="http://www.w3.org/2000/svg" viewBox="0 0 24.57 24.57"><defs><style>.cls-1{fill:#fff;fill-rule:evenodd;}</style></defs><title>membership</title><path class="cls-1" d="M309,391.71a.38.38,0,1,1,0-.76h7.19a1.38,1.38,0,0,1,1,.4h0a1.38,1.38,0,0,1,.4,1V407.2a1.36,1.36,0,0,1-.4,1l0,0a1.35,1.35,0,0,1-.94.37H294.37a1.34,1.34,0,0,1-1-.4,1.37,1.37,0,0,1-.41-1V392.32a1.4,1.4,0,0,1,.4-1h0a1.39,1.39,0,0,1,1-.41h7.2a.39.39,0,0,1,0,.77h-7.2a.6.6,0,0,0-.6.61V407.2a.66.66,0,0,0,.17.43.64.64,0,0,0,.43.18H316.2a.61.61,0,0,0,.41-.17h0a.6.6,0,0,0,.18-.43V392.32a.6.6,0,0,0-.18-.43.62.62,0,0,0-.43-.18Zm0,0" transform="translate(-293 -384)"/><path class="cls-1" d="M304.79,404.61a.39.39,0,0,1-.38-.39.38.38,0,0,1,.38-.38h5.95a.38.38,0,0,1,.39.38.39.39,0,0,1-.39.39Zm0-2a.39.39,0,0,1-.38-.39.38.38,0,0,1,.38-.38h9.42a.38.38,0,0,1,.39.38.39.39,0,0,1-.39.39Zm0-2a.39.39,0,0,1,0-.77h9.42a.39.39,0,1,1,0,.77Zm0-2a.39.39,0,0,1-.38-.39.38.38,0,0,1,.38-.38h9.42a.38.38,0,0,1,.39.38.39.39,0,0,1-.39.39Zm0,0" transform="translate(-293 -384)"/><path class="cls-1" d="M299.48,397.89a2.36,2.36,0,0,1,1.68.69h0a2.38,2.38,0,0,1,0,3.35h0a2.35,2.35,0,0,1-3.35,0h0a2.38,2.38,0,0,1,0-3.35h0a2.35,2.35,0,0,1,1.67-.69Zm1.14,1.23a1.59,1.59,0,0,0-1.14-.46,1.63,1.63,0,0,0-1.13.46h0a1.55,1.55,0,0,0-.46,1.12,1.59,1.59,0,0,0,.46,1.14h0a1.61,1.61,0,0,0,2.74-1.14,1.55,1.55,0,0,0-.47-1.12Zm0,0" transform="translate(-293 -384)"/><path class="cls-1" d="M297.5,404.61a.39.39,0,0,1-.38-.39.38.38,0,0,1,.38-.38h4a.38.38,0,0,1,.38.38.39.39,0,0,1-.38.39Zm0,0" transform="translate(-293 -384)"/><path class="cls-1" d="M309,393.7a.4.4,0,0,1-.39-.39.39.39,0,0,1,.39-.38h2a.39.39,0,0,1,.39.38v2a.39.39,0,0,1-.39.38h-11.4a.38.38,0,0,1-.39-.38v-2a.38.38,0,0,1,.39-.38h2a.38.38,0,0,1,.38.38.39.39,0,0,1-.38.39H300v1.21h10.64V393.7Zm0,0" transform="translate(-293 -384)"/><path class="cls-1" d="M303.55,384H307a.39.39,0,0,1,.39.38v8.93a.4.4,0,0,1-.39.39h-3.47a.39.39,0,0,1-.38-.39v-8.93a.38.38,0,0,1,.38-.38Zm3.09.77h-2.7v8.16h2.7Zm0,0" transform="translate(-293 -384)"/><path class="cls-1" d="M305.93,386.37a.65.65,0,1,1-.64-.65.64.64,0,0,1,.64.65Zm0,0" transform="translate(-293 -384)"/></svg>