<svg id="Layer_1" data-name="Layer 1" xmlns="http://www.w3.org/2000/svg" viewBox="0 0 669 609"><defs><style>.cls-1{fill:#fff;}</style></defs><title>Artboard 1</title><path class="cls-1" d="M471.8,452.52c76.48-76.48,76.48-201,0-277.44s-201-76.48-277.44,0-76.48,201,0,277.44,201,76.48,277.44,0ZM208.2,188.92C277.08,120,389.08,120,458,188.92s68.88,180.88,0,249.76-180.88,68.88-249.76,0-68.8-180.88,0-249.76Zm0,0"/><path class="cls-1" d="M333.38,389a9.58,9.58,0,0,0,6.8-2.93,10.31,10.31,0,0,0,2.82-7.11V324h52.62a9.53,9.53,0,0,0,6.79-2.94,10.26,10.26,0,0,0,2.82-7.1c0-5.55-4.3-10-9.54-10H343V248.85c0-5.57-4.28-10.08-9.5-10a9.7,9.7,0,0,0-9.5,10V304H271.6a9.71,9.71,0,0,0-9.51,10c0,5.57,4.29,10.08,9.51,10H324v54.85A9.51,9.51,0,0,0,333.38,389Z"/></svg>