<svg id="Layer_1" data-name="Layer 1" xmlns="http://www.w3.org/2000/svg" viewBox="0 0 396.08 404.62"><defs><style>.cls-1{fill:#fff;stroke:#fff;stroke-miterlimit:10;}</style></defs><title>supplier</title><path class="cls-1" d="M246.08,489.8,200.4,461.6l4.72-13-.54.22a32.91,32.91,0,0,1-44.87-26.92l-6.55-58.49c-.11-1,0-1.94,0-2.91l-27.24,74.89c-3.91,10.73-.84,21.25,2.06,31.45.58,2,19.2,53.74,19.2,53.74L110,570.9a23,23,0,0,0,37,27.38l44.63-60.38a23,23,0,0,0,3-21.81l-1.9-5.05,17,10.48-5.54,61a23,23,0,0,0,20.86,25c.71.06,1.41.09,2.11.09a23,23,0,0,0,22.92-21l6.82-75.18a23.07,23.07,0,0,0-10.85-21.69Zm0,0" transform="translate(-104.96 -203.5)"/><path class="cls-1" d="M224.1,337.24l1.75,15.61,14.4-5.74A39.32,39.32,0,0,0,168,317.93a32.73,32.73,0,0,1,56.06,19.31Zm0,0" transform="translate(-104.96 -203.5)"/><path class="cls-1" d="M216.3,285.44a40.72,40.72,0,1,0-40.71-40.72,40.71,40.71,0,0,0,40.71,40.72Z" transform="translate(-104.96 -203.5)"/><path class="cls-1" d="M224.3,285.44" transform="translate(-104.96 -203.5)"/><path class="cls-1" d="M483.27,442.53H361.52a17.28,17.28,0,0,0-17.28,17.28v48.53a17.28,17.28,0,0,0,17.28,17.28H483.27a17.28,17.28,0,0,0,17.27-17.28V459.81a17.28,17.28,0,0,0-17.27-17.28Zm0,0" transform="translate(-104.96 -203.5)"/><path class="cls-1" d="M347.53,418.68H415.4a17.28,17.28,0,0,0,17.28-17.28V358.17a17.28,17.28,0,0,0-17.28-17.28H347.53a17.28,17.28,0,0,0-17.27,17.28V401.4a17.27,17.27,0,0,0,17.27,17.28Zm0,0" transform="translate(-104.96 -203.5)"/><path class="cls-1" d="M467.64,543.72H316.27V393.17A13.16,13.16,0,0,0,303.11,380H283.32a19.7,19.7,0,0,0-25.58-25.69l-43.05,17.15L211,338.7a19.74,19.74,0,1,0-39.23,4.39l6.54,58.48a19.74,19.74,0,0,0,26.92,16.16l42.9-17.09a12.92,12.92,0,0,0,10.55,5.7H290V556.88A13.16,13.16,0,0,0,303.11,570h16.07a21.8,21.8,0,0,0,42.72,0h49.41A21.8,21.8,0,0,0,454,570h13.6a13.16,13.16,0,1,0,0-26.32Zm0,0" transform="translate(-104.96 -203.5)"/></svg>